HIERARCHY
ROOT Hips
{
	OFFSET 0.000000 0.000000 0.000000
	CHANNELS 6 Xposition Yposition Zposition Xrotation Yrotation Zrotation
	JOINT Chest
	{
		OFFSET 0.000000 0.009282 11.569106
		CHANNELS 3 Xrotation Yrotation Zrotation
		JOINT Chest2
		{
			OFFSET 0.000000 -0.016863 9.269641
			CHANNELS 3 Xrotation Yrotation Zrotation
			JOINT Chest3
			{
				OFFSET 0.000000 0.000000 8.374491
				CHANNELS 3 Xrotation Yrotation Zrotation
				JOINT Chest4
				{
					OFFSET 0.000000 0.000000 8.374493
					CHANNELS 3 Xrotation Yrotation Zrotation
					JOINT Neck
					{
						OFFSET 0.000000 -0.000001 12.152554
						CHANNELS 3 Xrotation Yrotation Zrotation
						JOINT Head
						{
							OFFSET 0.000000 -0.040100 7.802319
							CHANNELS 3 Xrotation Yrotation Zrotation
							End Site
							{
								OFFSET 0.000000 -0.020946 14.853096
							}
						}
					}
					JOINT RightCollar
					{
						OFFSET -2.894404 0.000000 6.791374
						CHANNELS 3 Xrotation Yrotation Zrotation
						JOINT RightShoulder
						{
							OFFSET -13.574684 0.000000 0.000000
							CHANNELS 3 Xrotation Yrotation Zrotation
							JOINT RightElbow
							{
								OFFSET -23.923903 0.000000 0.000000
								CHANNELS 3 Xrotation Yrotation Zrotation
								JOINT RightWrist
								{
									OFFSET -19.846718 -0.012765 0.000000
									CHANNELS 3 Xrotation Yrotation Zrotation
									End Site
									{
										OFFSET -14.973145 0.000000 0.000000
									}
								}
							}
						}
					}
					JOINT LeftCollar
					{
						OFFSET 2.894404 0.000000 6.791374
						CHANNELS 3 Xrotation Yrotation Zrotation
						JOINT LeftShoulder
						{
							OFFSET 13.574684 0.000000 0.000000
							CHANNELS 3 Xrotation Yrotation Zrotation
							JOINT LeftElbow
							{
								OFFSET 23.923903 0.000000 0.000000
								CHANNELS 3 Xrotation Yrotation Zrotation
								JOINT LeftWrist
								{
									OFFSET 19.846718 -0.012765 0.000000
									CHANNELS 3 Xrotation Yrotation Zrotation
									End Site
									{
										OFFSET 14.973145 0.000000 0.000000
									}
								}
							}
						}
					}
				}
			}
		}
	}
	JOINT RightHip
	{
		OFFSET -9.469263 -0.004642 0.045487
		CHANNELS 3 Xrotation Yrotation Zrotation
		JOINT RightKnee
		{
			OFFSET 0.000000 -0.002666 -40.478676
			CHANNELS 3 Xrotation Yrotation Zrotation
			JOINT RightAnkle
			{
				OFFSET 0.000000 -0.049110 -35.224068
				CHANNELS 3 Xrotation Yrotation Zrotation
				JOINT RightToe
				{
					OFFSET 0.000000 -12.539530 -6.151390
					CHANNELS 3 Xrotation Yrotation Zrotation
					End Site
					{
						OFFSET 0.000000 -5.044995 -1.291870
					}
				}
			}
		}
	}
	JOINT LeftHip
	{
		OFFSET 9.469263 -0.004642 0.045487
		CHANNELS 3 Xrotation Yrotation Zrotation
		JOINT LeftKnee
		{
			OFFSET 0.000000 -0.002666 -40.478676
			CHANNELS 3 Xrotation Yrotation Zrotation
			JOINT LeftAnkle
			{
				OFFSET 0.000000 -0.049110 -35.224068
				CHANNELS 3 Xrotation Yrotation Zrotation
				JOINT LeftToe
				{
					OFFSET 0.000000 -12.539530 -6.151390
					CHANNELS 3 Xrotation Yrotation Zrotation
					End Site
					{
						OFFSET 0.000000 -5.044995 -1.291870
					}
				}
			}
		}
	}
}
MOTION
Frames: 8
Frame Time: 0.016667
-19.889654 -8.071821 82.994461 4.896598 10.566187 -113.964705 4.236252 0.576347 7.884338 1.893032 0.172215 3.432874 1.893033 0.172215 3.432873 1.420794 0.118534 2.575218 15.992017 -6.944801 -8.194151 -6.999680 -9.659130 -17.494205 -0.993767 -3.536353 -13.585257 -10.621942 -37.074441 40.730184 53.399959 -19.976066 92.047618 5.187316 -20.282387 -18.997620 7.725678 4.898235 -25.874281 -7.496226 58.077679 -35.712057 11.285323 2.962542 -20.693591 -2.856836 -58.566202 -44.272972 11.234299 0.687559 -4.964770 9.787028 -1.660340 -1.107766 -8.534217 1.749497 -0.030819 -0.005639 0.098126 -0.010489 12.160937 -0.354459 -1.038721 5.101934 -0.239523 -2.490027 -5.843116 1.250810 2.172492 0.033416 -0.096074 0.016693 
-19.940729 -8.018119 83.010971 4.796977 10.393132 -113.855394 4.142641 0.578746 7.751883 1.852511 0.177731 3.375439 1.852512 0.177731 3.375440 1.390415 0.123072 2.532146 15.904570 -6.876587 -8.633888 -7.139814 -9.366462 -18.271675 -1.316560 -3.340457 -13.381157 -12.644155 -36.109130 39.845247 53.251140 -21.480117 94.164041 4.263107 -21.150070 -18.829153 7.928852 4.940080 -25.807247 -6.025128 58.139861 -36.458433 13.036916 3.225119 -21.391495 1.978071 -58.349746 -39.191164 11.330760 0.639826 -5.014268 9.286615 -1.648620 -1.189045 -8.361477 1.721415 -0.008425 0.002198 0.104694 -0.007952 12.206138 -0.391951 -1.053443 4.663339 -0.229014 -2.559620 -5.624457 1.304736 2.165162 0.023027 -0.100826 0.016234 
-19.990541 -7.964759 83.024567 4.691839 10.207758 -113.736604 4.053745 0.586399 7.627923 1.812986 0.184385 3.322877 1.812986 0.184385 3.322879 1.360788 0.128437 2.492728 15.795173 -6.816525 -9.093057 -7.318292 -9.078040 -19.088531 -1.614538 -3.095449 -13.291091 -14.593261 -35.276991 39.084945 53.020819 -23.004557 96.083638 3.285684 -22.045701 -18.706647 8.129266 5.008739 -25.810310 -4.735220 58.108128 -37.213316 14.806354 3.608643 -22.098847 6.497451 -57.675156 -33.980136 11.420058 0.585314 -5.069359 8.773122 -1.628205 -1.284917 -8.187344 1.689029 0.023516 0.013107 0.108833 -0.004923 12.232666 -0.431479 -1.076575 4.233931 -0.224469 -2.650003 -5.413605 1.360507 2.158264 0.016917 -0.101829 0.013735 
-20.036194 -7.909414 83.034714 4.574801 9.993570 -113.608749 3.945745 0.596809 7.512223 1.764100 0.191376 3.273543 1.764099 0.191377 3.273543 1.324143 0.134088 2.455733 15.675438 -6.765407 -9.565589 -7.513691 -8.798770 -19.933161 -1.791003 -2.851438 -13.190659 -16.488358 -34.502164 38.360678 52.553367 -24.463526 97.779240 2.324653 -22.922789 -18.560940 8.205492 5.191742 -25.798268 -3.359500 57.903181 -38.016925 16.561631 4.190725 -22.931120 11.082178 -56.283125 -28.364457 11.475846 0.529469 -5.107020 8.262885 -1.617027 -1.418630 -8.019096 1.657682 0.071032 0.026312 0.114196 -0.002371 12.219624 -0.472191 -1.083190 3.814620 -0.223363 -2.773435 -5.208974 1.417086 2.158455 0.016239 -0.102349 0.012236 
-20.078035 -7.853883 83.043297 4.448006 9.768794 -113.472426 3.854183 0.632266 7.416205 1.722727 0.208602 3.232508 1.722728 0.208603 3.232505 1.293191 0.147346 2.424987 15.526746 -6.733675 -10.042431 -7.762678 -8.547709 -20.794485 -1.982246 -2.618731 -13.128063 -18.252173 -33.806165 37.695807 51.837499 -25.871782 99.255127 1.438680 -23.609445 -18.389173 8.187032 5.359585 -25.791704 -2.142795 57.593576 -38.650978 18.406887 4.842250 -24.023037 16.041633 -54.345353 -22.530398 11.510201 0.478373 -5.129620 7.766687 -1.611323 -1.580579 -7.858265 1.621795 0.125035 0.038407 0.123508 -0.000354 12.187352 -0.514792 -1.070185 3.401246 -0.219003 -2.914917 -5.004078 1.476128 2.136599 0.016264 -0.102373 0.010536 
-20.116529 -7.797524 83.051933 4.318007 9.544698 -113.337345 3.755343 0.670001 7.309182 1.679234 0.227445 3.186622 1.679233 0.227445 3.186623 1.260650 0.161834 2.390611 15.377957 -6.686624 -10.498638 -8.006440 -8.275319 -21.611519 -2.214784 -2.396480 -13.001625 -19.823893 -33.167037 37.010442 50.848808 -27.123494 100.506630 0.595753 -24.088517 -18.189398 8.223829 5.494820 -25.778720 -1.094315 57.262694 -39.147397 20.284986 5.309895 -25.302871 20.826217 -52.128195 -17.257443 11.534333 0.430642 -5.143155 7.284603 -1.605835 -1.735033 -7.699039 1.586368 0.165281 0.046211 0.133631 0.001164 12.143204 -0.551817 -1.041813 3.003839 -0.213554 -3.061861 -4.800534 1.535011 2.126424 0.013496 -0.102924 0.008908 
-20.150747 -7.740648 83.060280 4.190678 9.329137 -113.208985 3.652783 0.711970 7.181281 1.634918 0.249157 3.131335 1.634919 0.249157 3.131337 1.227502 0.178499 2.349183 15.230157 -6.623808 -10.923800 -8.243644 -7.984873 -22.365250 -2.540131 -2.152671 -12.871129 -21.105278 -32.658669 36.393570 49.582925 -28.273160 101.527040 -0.172898 -24.519551 -17.938235 8.377329 5.547252 -25.743003 -0.194787 56.960308 -39.612256 22.109987 5.613875 -26.733268 25.054565 -49.816511 -12.750862 11.559192 0.381414 -5.161272 6.812038 -1.591897 -1.865481 -7.537710 1.552947 0.191667 0.050050 0.140734 0.002551 12.097426 -0.586265 -1.015090 2.625218 -0.209754 -3.188779 -4.603988 1.597250 2.124040 0.009415 -0.102143 0.006845 
-20.178703 -7.680502 83.067101 4.064601 9.117694 -113.083283 3.573000 0.793758 7.095451 1.601265 0.288585 3.095027 1.601264 0.288585 3.095027 1.202445 0.208336 2.322041 15.046869 -6.597350 -11.362105 -8.549926 -7.748106 -23.158730 -2.939761 -1.987781 -12.898840 -22.196624 -32.241051 35.882590 48.070475 -29.507875 102.348411 -0.941272 -24.998810 -17.703574 8.557249 5.447184 -25.777593 0.531425 56.661214 -40.116092 23.928012 5.862318 -28.244065 28.671686 -47.143222 -8.676326 11.577663 0.328470 -5.186916 6.354388 -1.572413 -2.001733 -7.380996 1.518816 0.234857 0.053146 0.147327 0.004565 12.039598 -0.625120 -0.993922 2.274971 -0.201082 -3.309289 -4.420794 1.658832 2.107852 0.006309 -0.099017 0.004882 
